<svg id="Group_5" data-name="Group 5" xmlns="http://www.w3.org/2000/svg" width="12.284" height="7.701" viewBox="0 0 12.284 7.701">
  <path id="Icon_awesome-behance" data-name="Icon awesome-behance" d="M4.948,8.752A1.618,1.618,0,0,0,5.98,7.174C5.98,5.668,4.858,5.3,3.564,5.3H0V12.86H3.664c1.373,0,2.664-.659,2.664-2.195a1.821,1.821,0,0,0-1.38-1.913ZM1.661,6.592H3.22c.6,0,1.139.168,1.139.864,0,.642-.42.9-1.013.9H1.661V6.592Zm1.777,4.984H1.661V9.494H3.472c.732,0,1.194.3,1.194,1.079s-.552,1-1.228,1Zm7.646-5.133H8.019V5.7h3.065v.744Zm1.2,3.76A2.69,2.69,0,0,0,9.621,7.234a2.75,2.75,0,0,0-2.8,2.9A2.666,2.666,0,0,0,9.621,13a2.44,2.44,0,0,0,2.561-1.841H10.856a1.245,1.245,0,0,1-1.188.714,1.238,1.238,0,0,1-1.344-1.393h3.948C12.278,10.394,12.284,10.3,12.284,10.2ZM8.326,9.537A1.175,1.175,0,0,1,9.574,8.368a1.12,1.12,0,0,1,1.2,1.169Z" transform="translate(0 -5.302)" fill="#771732"/>
</svg>
