<svg id="Group_4" data-name="Group 4" xmlns="http://www.w3.org/2000/svg" width="10.326" height="10.326" viewBox="0 0 10.326 10.326">
  <path id="Icon_awesome-linkedin-in" data-name="Icon awesome-linkedin-in" d="M2.311,10.326H.171V3.432H2.311ZM1.24,2.492A1.246,1.246,0,1,1,2.48,1.241,1.25,1.25,0,0,1,1.24,2.492Zm9.084,7.834H8.187V6.97c0-.8-.016-1.825-1.113-1.825-1.113,0-1.284.869-1.284,1.768v3.414H3.652V3.432H5.706v.94h.03A2.249,2.249,0,0,1,7.761,3.26c2.167,0,2.565,1.427,2.565,3.28v3.787Z" transform="translate(0 -0.001)" fill="#771732"/>
</svg>
