<svg xmlns="http://www.w3.org/2000/svg" width="15.473" height="10.315" viewBox="0 0 15.473 10.315">
  <path id="Icon_awesome-eye" data-name="Icon awesome-eye" d="M15.379,9.265A8.616,8.616,0,0,0,7.736,4.5,8.617,8.617,0,0,0,.094,9.266a.869.869,0,0,0,0,.784,8.616,8.616,0,0,0,7.643,4.765,8.617,8.617,0,0,0,7.643-4.766A.869.869,0,0,0,15.379,9.265Zm-7.643,4.26A3.868,3.868,0,1,1,11.6,9.658,3.868,3.868,0,0,1,7.736,13.526Zm0-6.447a2.56,2.56,0,0,0-.68.1,1.285,1.285,0,0,1-1.8,1.8,2.573,2.573,0,1,0,2.477-1.9Z" transform="translate(0 -4.5)" fill="#fff"/>
</svg>
