<svg xmlns="http://www.w3.org/2000/svg" width="55.133" height="55.145" viewBox="0 0 55.133 55.145">
  <g id="XMLID_2144_" transform="translate(-0.056)">
    <g id="XMLID_335_" transform="translate(0.056 0)">
      <path id="XMLID_729_" d="M55.052,21.5c-2.05-3.676-4.706-4.856-6.574-5.2a8.2,8.2,0,0,0-1.551-.134,13.8,13.8,0,0,0,.357-1.909,1.077,1.077,0,0,0-.772-1.166,13.381,13.381,0,0,0-7.09-.436A28.622,28.622,0,0,0,39.66.876,1.077,1.077,0,0,0,38.6,0H34.167a1.077,1.077,0,0,0-1.058,1.278,23.074,23.074,0,0,1,.4,4.173,3.429,3.429,0,0,1-3.425,3.4,2.528,2.528,0,0,1-2.525-2.525,1.807,1.807,0,0,1,1.8-1.8,1.077,1.077,0,1,0,0-2.154A3.963,3.963,0,0,0,25.41,6.323,4.684,4.684,0,0,0,30.089,11a5.544,5.544,0,0,0,2.967-.858A23.013,23.013,0,0,1,27.7,20.872,6.361,6.361,0,0,0,18.077,12.8a6.361,6.361,0,0,0-8.242,9.53A6.363,6.363,0,0,0,7.108,32.555,6.356,6.356,0,0,0,4.365,42.766a6.361,6.361,0,1,0,8.07,8.07,6.356,6.356,0,0,0,10.212-2.746,6.363,6.363,0,0,0,10.206-2.746A6.362,6.362,0,0,0,42.7,37.649a14.485,14.485,0,0,0,8.526-.23,1.077,1.077,0,0,0,.746-.746c.2-.706.36-1.4.48-2.065a1.077,1.077,0,0,0-2.119-.385c-.075.413-.168.841-.278,1.278-8.458,2.129-10.238-2.9-10.416-3.491a1.077,1.077,0,0,0-2.07.594,7.042,7.042,0,0,1-1.285,5.519c-4.538-3.025-3.275-7.015-3.218-7.186a1.077,1.077,0,0,0-1.794-1.1,4.582,4.582,0,0,1-1.8.614c-.731-3.045-.5-5.306.68-6.728,1.741-2.092,5.131-1.787,5.162-1.784a1.079,1.079,0,0,0,1.183-1.179c0-.034-.308-3.424,1.783-5.165,1.422-1.184,3.682-1.411,6.728-.68a4.586,4.586,0,0,1-.614,1.8,1.076,1.076,0,0,0,1.094,1.8c.178-.059,4.167-1.322,7.193,3.216a7.044,7.044,0,0,1-5.519,1.285,1.077,1.077,0,0,0-.594,2.07,5.3,5.3,0,0,1,1.828,1.063,1.077,1.077,0,0,0,1.76-1.035,11.061,11.061,0,0,0,4.629-2.25,1.076,1.076,0,0,0,.272-1.369ZM16.379,38.8a4.207,4.207,0,1,1,5.95,0A4.212,4.212,0,0,1,16.379,38.8Zm5.715-8.981a4.207,4.207,0,1,1,2.975-1.232A4.179,4.179,0,0,1,22.094,29.82Zm3.124-15.192a4.207,4.207,0,0,1,.3,5.621,6.317,6.317,0,0,0-3.42-1,6.417,6.417,0,0,0-1.23.119,6.426,6.426,0,0,0,.119-1.23,6.312,6.312,0,0,0-1.31-3.866,4.206,4.206,0,0,1,5.546.354Zm-13.572.537a4.207,4.207,0,1,1-1.232,2.975A4.179,4.179,0,0,1,11.647,15.165ZM8.906,25.378a4.207,4.207,0,1,1,0,5.95A4.179,4.179,0,0,1,8.906,25.378ZM6.175,35.6a4.207,4.207,0,1,1,0,5.95A4.194,4.194,0,0,1,6.175,35.6ZM9.389,51.762a4.205,4.205,0,1,1,0-5.95A4.212,4.212,0,0,1,9.389,51.762ZM19.6,49.026a4.207,4.207,0,1,1,0-5.95A4.179,4.179,0,0,1,19.6,49.026Zm10.2-2.752A4.207,4.207,0,1,1,31.034,43.3,4.179,4.179,0,0,1,29.8,46.273ZM36.046,40.5a1.077,1.077,0,0,0,1.369-.272,11.742,11.742,0,0,0,1.851-3.24,4.206,4.206,0,1,1-5.906,1.532A12.382,12.382,0,0,0,36.046,40.5Zm-5.332-8.125a8.116,8.116,0,0,0,1.144,4.238,4.207,4.207,0,0,1-5.265-6.5,4.261,4.261,0,0,1,.518-.44,20.925,20.925,0,0,0,.528,2.291,1.078,1.078,0,0,0,1.166.772,13.805,13.805,0,0,0,1.909-.357Zm3.617-12.6a9.45,9.45,0,0,0-3.686.893A25.166,25.166,0,0,0,35.667,5.509c0-.029,0-.057,0-.086s0-.04,0-.061a25.226,25.226,0,0,0-.231-3.208H37.7A26.446,26.446,0,0,1,36.825,14a8.062,8.062,0,0,0-2.5,5.776Z" transform="translate(-0.056 0)" fill="#fff"/>
      <path id="XMLID_780_" d="M467.6,264.857a1.076,1.076,0,1,0,.761-.316A1.085,1.085,0,0,0,467.6,264.857Z" transform="translate(-416.963 -236.048)" fill="#fff"/>
    </g>
  </g>
</svg>
