<svg xmlns="http://www.w3.org/2000/svg" width="42.747" height="56.997" viewBox="0 0 42.747 56.997">
  <path id="Icon_awesome-award" data-name="Icon awesome-award" d="M10.811,40.368c-.967-.967-.463-.695-2.8-1.319a8.032,8.032,0,0,1-2.831-1.483L.134,49.949A1.781,1.781,0,0,0,1.851,52.4l5.865-.224,4.034,4.261a1.781,1.781,0,0,0,2.942-.552l5.794-14.207a7.989,7.989,0,0,1-9.676-1.312Zm31.8,9.581L37.563,37.566a8.014,8.014,0,0,1-2.831,1.483c-2.345.628-1.831.354-2.8,1.319a7.99,7.99,0,0,1-9.677,1.312l5.794,14.207a1.781,1.781,0,0,0,2.942.552l4.035-4.261L40.9,52.4A1.782,1.782,0,0,0,42.613,49.949Zm-13.336-12.1c1.7-1.731,1.9-1.582,4.318-2.242a4.524,4.524,0,0,0,3.169-3.226c.833-3.161.617-2.78,2.889-5.093a4.618,4.618,0,0,0,1.16-4.406c-.832-3.159-.833-2.718,0-5.881a4.618,4.618,0,0,0-1.16-4.406C37.381,10.282,37.6,10.662,36.764,7.5A4.524,4.524,0,0,0,33.6,4.276c-3.1-.847-2.73-.626-5-2.94A4.429,4.429,0,0,0,24.262.155c-3.1.846-2.669.847-5.777,0a4.427,4.427,0,0,0-4.329,1.181c-2.272,2.313-1.9,2.093-5,2.94A4.524,4.524,0,0,0,5.983,7.5c-.832,3.16-.617,2.78-2.889,5.093A4.615,4.615,0,0,0,1.935,17c.832,3.157.833,2.716,0,5.88a4.621,4.621,0,0,0,1.16,4.407c2.272,2.313,2.056,1.931,2.889,5.093a4.524,4.524,0,0,0,3.169,3.226c2.491.679,2.677.572,4.317,2.242a4.424,4.424,0,0,0,5.537.648,4.417,4.417,0,0,1,4.734,0A4.423,4.423,0,0,0,29.277,37.849ZM10.872,19.588a10.5,10.5,0,1,1,10.5,10.689,10.6,10.6,0,0,1-10.5-10.689Z" transform="translate(0 0)" fill="#fff"/>
</svg>
