<svg id="Group_6" data-name="Group 6" xmlns="http://www.w3.org/2000/svg" width="10.998" height="8.933" viewBox="0 0 10.998 8.933">
  <path id="Icon_awesome-twitter" data-name="Icon awesome-twitter" d="M9.868,5.607c.007.1.007.2.007.293a6.369,6.369,0,0,1-6.413,6.413A6.37,6.37,0,0,1,0,11.3a4.663,4.663,0,0,0,.544.028,4.514,4.514,0,0,0,2.8-.963A2.258,2.258,0,0,1,1.235,8.8a2.843,2.843,0,0,0,.426.035,2.384,2.384,0,0,0,.593-.077A2.254,2.254,0,0,1,.447,6.549V6.521a2.27,2.27,0,0,0,1.019.286,2.257,2.257,0,0,1-.7-3.015A6.407,6.407,0,0,0,5.415,6.151a2.545,2.545,0,0,1-.056-.516,2.256,2.256,0,0,1,3.9-1.542,4.438,4.438,0,0,0,1.431-.544A2.248,2.248,0,0,1,9.7,4.79,4.519,4.519,0,0,0,11,4.442a4.845,4.845,0,0,1-1.13,1.165Z" transform="translate(0 -3.381)" fill="#771732"/>
</svg>
