<svg xmlns="http://www.w3.org/2000/svg" width="32.483" height="32.49" viewBox="0 0 32.483 32.49">
  <g id="XMLID_2144_" transform="translate(-0.056)">
    <g id="XMLID_335_" transform="translate(0.056 0)">
      <path id="XMLID_729_" d="M32.458,12.664A5.6,5.6,0,0,0,28.585,9.6a4.829,4.829,0,0,0-.914-.079,8.13,8.13,0,0,0,.21-1.125.635.635,0,0,0-.455-.687,7.883,7.883,0,0,0-4.177-.257A16.863,16.863,0,0,0,23.39.516.635.635,0,0,0,22.766,0H20.153a.635.635,0,0,0-.623.753,13.6,13.6,0,0,1,.238,2.458,2.02,2.02,0,0,1-2.018,2,1.489,1.489,0,0,1-1.488-1.488,1.064,1.064,0,0,1,1.063-1.063.635.635,0,1,0,0-1.269,2.335,2.335,0,0,0-2.332,2.332,2.76,2.76,0,0,0,2.757,2.757A3.267,3.267,0,0,0,19.5,5.977a13.559,13.559,0,0,1-3.154,6.32A3.748,3.748,0,0,0,10.673,7.54a3.747,3.747,0,0,0-4.856,5.615,3.749,3.749,0,0,0-1.607,6.026A3.745,3.745,0,0,0,2.594,25.2a3.748,3.748,0,1,0,4.754,4.754,3.745,3.745,0,0,0,6.017-1.618,3.749,3.749,0,0,0,6.013-1.618,3.748,3.748,0,0,0,5.8-4.534,8.534,8.534,0,0,0,5.023-.135.635.635,0,0,0,.44-.439c.117-.416.212-.825.283-1.217a.635.635,0,0,0-1.249-.227c-.044.243-.1.5-.164.753-4.983,1.254-6.032-1.707-6.137-2.057a.635.635,0,0,0-1.22.35,4.149,4.149,0,0,1-.757,3.252c-2.673-1.782-1.93-4.133-1.9-4.234a.635.635,0,0,0-1.057-.649,2.7,2.7,0,0,1-1.062.362c-.431-1.794-.3-3.126.4-3.964a3.9,3.9,0,0,1,3.041-1.051.636.636,0,0,0,.7-.695,3.9,3.9,0,0,1,1.051-3.043c.838-.7,2.169-.832,3.964-.4a2.7,2.7,0,0,1-.362,1.062.634.634,0,0,0,.645,1.058c.1-.035,2.455-.779,4.238,1.895a4.15,4.15,0,0,1-3.252.757.635.635,0,0,0-.35,1.22,3.125,3.125,0,0,1,1.077.626.635.635,0,0,0,1.037-.61A6.517,6.517,0,0,0,32.3,13.471a.634.634,0,0,0,.16-.806ZM9.673,22.86a2.479,2.479,0,1,1,3.505,0A2.481,2.481,0,0,1,9.673,22.86Zm3.367-5.291a2.479,2.479,0,1,1,1.753-.726A2.462,2.462,0,0,1,13.04,17.569Zm1.841-8.951a2.479,2.479,0,0,1,.174,3.312,3.722,3.722,0,0,0-2.015-.588,3.781,3.781,0,0,0-.725.07,3.786,3.786,0,0,0,.07-.725,3.719,3.719,0,0,0-.772-2.278,2.478,2.478,0,0,1,3.268.209Zm-8,.316a2.479,2.479,0,1,1-.726,1.753A2.462,2.462,0,0,1,6.885,8.935ZM5.27,14.952a2.479,2.479,0,1,1,0,3.505A2.462,2.462,0,0,1,5.27,14.952ZM3.661,20.976a2.479,2.479,0,1,1,0,3.505A2.471,2.471,0,0,1,3.661,20.976ZM5.554,30.5a2.477,2.477,0,1,1,0-3.505A2.481,2.481,0,0,1,5.554,30.5Zm6.015-1.612a2.479,2.479,0,1,1,0-3.505A2.462,2.462,0,0,1,11.569,28.884Zm6.012-1.622a2.479,2.479,0,1,1,.726-1.753A2.462,2.462,0,0,1,17.581,27.263Zm3.679-3.4a.634.634,0,0,0,.807-.16,6.918,6.918,0,0,0,1.09-1.909,2.478,2.478,0,1,1-3.48.9A7.3,7.3,0,0,0,21.26,23.862Zm-3.142-4.787a4.781,4.781,0,0,0,.674,2.5,2.479,2.479,0,0,1-3.1-3.832A2.51,2.51,0,0,1,16,17.481a12.329,12.329,0,0,0,.311,1.35.635.635,0,0,0,.687.455,8.134,8.134,0,0,0,1.125-.21Zm2.131-7.422a5.568,5.568,0,0,0-2.172.526,14.827,14.827,0,0,0,2.959-8.934c0-.017,0-.034,0-.051s0-.024,0-.036a14.863,14.863,0,0,0-.136-1.89h1.332a15.581,15.581,0,0,1-.513,6.981,4.75,4.75,0,0,0-1.47,3.4Z" transform="translate(-0.056 0)" fill="#2b2b2b"/>
      <path id="XMLID_780_" d="M467.474,264.727a.634.634,0,1,0,.449-.186A.639.639,0,0,0,467.474,264.727Z" transform="translate(-437.638 -247.753)" fill="#2b2b2b"/>
    </g>
  </g>
</svg>
