<svg xmlns="http://www.w3.org/2000/svg" width="27.604" height="36.805" viewBox="0 0 27.604 36.805">
  <path id="Icon_awesome-award" data-name="Icon awesome-award" d="M6.981,26.067c-.625-.625-.3-.449-1.806-.852a5.186,5.186,0,0,1-1.828-.957l-3.261,8A1.15,1.15,0,0,0,1.2,33.838l3.788-.144,2.605,2.752a1.15,1.15,0,0,0,1.9-.357l3.742-9.174a5.159,5.159,0,0,1-6.248-.848Zm20.536,6.187-3.261-8a5.175,5.175,0,0,1-1.828.957c-1.515.405-1.182.229-1.806.852a5.16,5.16,0,0,1-6.249.848l3.742,9.174a1.15,1.15,0,0,0,1.9.357l2.606-2.752,3.788.144A1.15,1.15,0,0,0,27.517,32.254ZM18.905,24.44c1.1-1.118,1.224-1.021,2.788-1.448a2.921,2.921,0,0,0,2.047-2.083c.538-2.041.4-1.795,1.865-3.289a2.982,2.982,0,0,0,.749-2.845c-.537-2.04-.538-1.755,0-3.8a2.982,2.982,0,0,0-.749-2.845c-1.467-1.494-1.328-1.248-1.865-3.289a2.921,2.921,0,0,0-2.047-2.083c-2-.547-1.763-.4-3.231-1.9A2.86,2.86,0,0,0,15.667.1c-2,.546-1.724.547-3.731,0a2.859,2.859,0,0,0-2.8.763c-1.467,1.494-1.226,1.351-3.23,1.9A2.921,2.921,0,0,0,3.864,4.844C3.327,6.885,3.466,6.639,2,8.133a2.98,2.98,0,0,0-.749,2.845c.537,2.039.538,1.754,0,3.8A2.984,2.984,0,0,0,2,17.621c1.467,1.494,1.328,1.247,1.865,3.289A2.921,2.921,0,0,0,5.91,22.993c1.609.438,1.729.369,2.788,1.448a2.857,2.857,0,0,0,3.575.418,2.852,2.852,0,0,1,3.057,0A2.856,2.856,0,0,0,18.905,24.44ZM7.02,12.649a6.783,6.783,0,1,1,6.781,6.9,6.843,6.843,0,0,1-6.781-6.9Z" transform="translate(0 0.001)" fill="#2b2b2b"/>
</svg>
