<svg xmlns="http://www.w3.org/2000/svg" width="23.277" height="23.277" viewBox="0 0 23.277 23.277">
  <path id="Icon_metro-earth" data-name="Icon metro-earth" d="M14.209,1.928A11.639,11.639,0,1,0,25.848,13.567,11.639,11.639,0,0,0,14.209,1.928Zm0,21.823a10.15,10.15,0,0,1-4.029-.829l5.3-5.962a.727.727,0,0,0,.184-.483V14.294a.727.727,0,0,0-.727-.727c-2.568,0-5.278-2.67-5.305-2.7a.727.727,0,0,0-.514-.213H6.208a.727.727,0,0,0-.727.727v4.365a.727.727,0,0,0,.4.651L8.39,17.653v4.271A10.19,10.19,0,0,1,5.006,9.2H7.663a.728.728,0,0,0,.514-.213l2.91-2.91a.728.728,0,0,0,.213-.514V3.805a10.212,10.212,0,0,1,7.372.6c-.094.08-.186.163-.274.251a4.365,4.365,0,0,0,3.083,7.451q.108,0,.216-.005a17.082,17.082,0,0,1-.191,8.464.725.725,0,0,0-.019.119,10.152,10.152,0,0,1-7.277,3.061Z" transform="translate(-2.571 -1.928)" fill="#1042cc"/>
</svg>
