<svg xmlns="http://www.w3.org/2000/svg" width="28.11" height="38.443" viewBox="0 0 28.11 38.443">
  <g id="wine" transform="translate(-68.809)">
    <g id="Group_24" data-name="Group 24" transform="translate(68.809)">
      <g id="Group_23" data-name="Group 23">
        <path id="Path_5" data-name="Path 5" d="M77.779,11.789V.641A.641.641,0,0,0,77.138,0H73.294a.641.641,0,0,0-.641.641V11.789a7.548,7.548,0,0,0-3.844,6.606V37.8a.641.641,0,0,0,.641.641H80.982a.641.641,0,0,0,.641-.641V18.4A7.548,7.548,0,0,0,77.779,11.789Zm2.563,25.372H70.09V18.395a6.276,6.276,0,0,1,3.49-5.648.641.641,0,0,0,.354-.573V1.281H76.5V12.174a.641.641,0,0,0,.354.573,6.276,6.276,0,0,1,3.49,5.648V37.161Z" transform="translate(-68.809)" fill="#2b2b2b"/>
      </g>
    </g>
    <g id="Group_26" data-name="Group 26" transform="translate(73.292 3.204)">
      <g id="Group_25" data-name="Group 25">
        <rect id="Rectangle_27" data-name="Rectangle 27" width="3.844" height="1.281" fill="#2b2b2b"/>
      </g>
    </g>
    <g id="Group_28" data-name="Group 28" transform="translate(85.548 12.173)">
      <g id="Group_27" data-name="Group 27">
        <path id="Path_6" data-name="Path 6" d="M303.061,170.7l-1.147-8.015a.64.64,0,0,0-.634-.55h-7.689a.642.642,0,0,0-.635.55l-1.146,7.98a5.412,5.412,0,0,0,.113,2.164l.112.47a5.56,5.56,0,0,0,5.4,4.214h.01a5.568,5.568,0,0,0,5.395-4.19l.105-.447A5.417,5.417,0,0,0,303.061,170.7Zm-1.36,1.866-.106.448a4.284,4.284,0,0,1-4.151,3.216h-.008a4.277,4.277,0,0,1-4.156-3.236l-.113-.475a4.14,4.14,0,0,1-.088-1.669l1.067-7.434h6.578l1.069,7.469A4.157,4.157,0,0,1,301.7,172.564Z" transform="translate(-291.75 -162.133)" fill="#2b2b2b"/>
      </g>
    </g>
    <g id="Group_30" data-name="Group 30" transform="translate(90.591 26.91)">
      <g id="Group_29" data-name="Group 29">
        <rect id="Rectangle_28" data-name="Rectangle 28" width="1.281" height="8.329" fill="#2b2b2b"/>
      </g>
    </g>
    <g id="Group_32" data-name="Group 32" transform="translate(86.749 34.598)">
      <g id="Group_31" data-name="Group 31">
        <path id="Path_7" data-name="Path 7" d="M313.507,460.8h-2.563a3.207,3.207,0,0,0-3.2,3.2.64.64,0,0,0,.641.641h7.689a.64.64,0,0,0,.641-.641A3.207,3.207,0,0,0,313.507,460.8Zm-4.375,2.563a1.926,1.926,0,0,1,1.813-1.281h2.563a1.926,1.926,0,0,1,1.813,1.281Z" transform="translate(-307.741 -460.8)" fill="#2b2b2b"/>
      </g>
    </g>
    <g id="Group_34" data-name="Group 34" transform="translate(86.106 21.143)">
      <g id="Group_33" data-name="Group 33">
        <rect id="Rectangle_29" data-name="Rectangle 29" width="10.251" height="1.281" fill="#2b2b2b"/>
      </g>
    </g>
    <g id="Group_36" data-name="Group 36" transform="translate(73.292 8.97)">
      <g id="Group_35" data-name="Group 35">
        <rect id="Rectangle_30" data-name="Rectangle 30" width="3.844" height="1.281" fill="#2b2b2b"/>
      </g>
    </g>
    <g id="Group_38" data-name="Group 38" transform="translate(71.372 19.862)">
      <g id="Group_37" data-name="Group 37">
        <path id="Path_8" data-name="Path 8" d="M109.99,264.533h-6.407a.641.641,0,0,0-.641.641v11.533a.641.641,0,0,0,.641.641h6.407a.641.641,0,0,0,.641-.641V265.174A.641.641,0,0,0,109.99,264.533Zm-.641,11.533h-5.126V265.814h5.126Z" transform="translate(-102.942 -264.533)" fill="#2b2b2b"/>
      </g>
    </g>
  </g>
</svg>
