<svg xmlns="http://www.w3.org/2000/svg" width="18.411" height="18.41" viewBox="0 0 18.411 18.41">
  <path id="Icon_ionic-ios-call" data-name="Icon ionic-ios-call" d="M22.37,18.918a15.464,15.464,0,0,0-3.23-2.162c-.968-.465-1.323-.455-2.008.038-.57.412-.939.8-1.6.652a9.521,9.521,0,0,1-3.206-2.373,9.453,9.453,0,0,1-2.373-3.206c-.139-.661.244-1.026.652-1.6.494-.685.508-1.04.038-2.008a15.159,15.159,0,0,0-2.162-3.23c-.7-.7-.863-.551-1.251-.412a7.118,7.118,0,0,0-1.146.609A3.456,3.456,0,0,0,4.712,6.682c-.273.59-.59,1.687,1.021,4.553A25.407,25.407,0,0,0,10.2,17.192h0l0,0,0,0h0a25.506,25.506,0,0,0,5.958,4.467c2.866,1.61,3.964,1.294,4.553,1.021a3.4,3.4,0,0,0,1.452-1.376,7.118,7.118,0,0,0,.609-1.146C22.921,19.781,23.079,19.623,22.37,18.918Z" transform="translate(-4.49 -4.502)" fill="#202020"/>
</svg>
