<svg xmlns="http://www.w3.org/2000/svg" width="43.261" height="59.163" viewBox="0 0 43.261 59.163">
  <g id="wine" transform="translate(-68.809)">
    <g id="Group_24" data-name="Group 24" transform="translate(68.809)">
      <g id="Group_23" data-name="Group 23">
        <path id="Path_5" data-name="Path 5" d="M82.614,18.143V.986A.986.986,0,0,0,81.628,0H75.711a.986.986,0,0,0-.986.986V18.143A11.616,11.616,0,0,0,68.809,28.31V58.177a.986.986,0,0,0,.986.986H87.544a.986.986,0,0,0,.986-.986V28.311A11.617,11.617,0,0,0,82.614,18.143Zm3.944,39.048H70.781V28.31a9.66,9.66,0,0,1,5.371-8.692.987.987,0,0,0,.545-.882V1.972h3.944V18.735a.986.986,0,0,0,.545.882,9.659,9.659,0,0,1,5.371,8.692V57.191Z" transform="translate(-68.809)" fill="#fff"/>
      </g>
    </g>
    <g id="Group_26" data-name="Group 26" transform="translate(75.708 4.93)">
      <g id="Group_25" data-name="Group 25">
        <rect id="Rectangle_27" data-name="Rectangle 27" width="5.916" height="1.972" fill="#fff"/>
      </g>
    </g>
    <g id="Group_28" data-name="Group 28" transform="translate(94.571 18.735)">
      <g id="Group_27" data-name="Group 27">
        <path id="Path_6" data-name="Path 6" d="M309.158,175.315l-1.765-12.336a.986.986,0,0,0-.976-.846H294.584a.989.989,0,0,0-.977.846l-1.764,12.281a8.328,8.328,0,0,0,.174,3.33l.172.723a8.557,8.557,0,0,0,8.31,6.485h.015a8.57,8.57,0,0,0,8.3-6.449l.162-.688A8.336,8.336,0,0,0,309.158,175.315Zm-2.093,2.871-.163.69a6.594,6.594,0,0,1-6.389,4.95H300.5a6.583,6.583,0,0,1-6.4-4.98l-.174-.732a6.371,6.371,0,0,1-.136-2.569l1.643-11.441h10.124l1.646,11.494A6.4,6.4,0,0,1,307.065,178.186Z" transform="translate(-291.75 -162.133)" fill="#fff"/>
      </g>
    </g>
    <g id="Group_30" data-name="Group 30" transform="translate(102.332 41.414)">
      <g id="Group_29" data-name="Group 29">
        <rect id="Rectangle_28" data-name="Rectangle 28" width="1.972" height="12.819" fill="#fff"/>
      </g>
    </g>
    <g id="Group_32" data-name="Group 32" transform="translate(96.418 53.247)">
      <g id="Group_31" data-name="Group 31">
        <path id="Path_7" data-name="Path 7" d="M316.615,460.8h-3.944a4.936,4.936,0,0,0-4.93,4.93.985.985,0,0,0,.986.986H320.56a.985.985,0,0,0,.986-.986A4.936,4.936,0,0,0,316.615,460.8Zm-6.734,3.944a2.965,2.965,0,0,1,2.79-1.972h3.944a2.964,2.964,0,0,1,2.79,1.972Z" transform="translate(-307.741 -460.8)" fill="#fff"/>
      </g>
    </g>
    <g id="Group_34" data-name="Group 34" transform="translate(95.429 32.54)">
      <g id="Group_33" data-name="Group 33">
        <rect id="Rectangle_29" data-name="Rectangle 29" width="15.777" height="1.972" fill="#fff"/>
      </g>
    </g>
    <g id="Group_36" data-name="Group 36" transform="translate(75.708 13.805)">
      <g id="Group_35" data-name="Group 35">
        <rect id="Rectangle_30" data-name="Rectangle 30" width="5.916" height="1.972" fill="#fff"/>
      </g>
    </g>
    <g id="Group_38" data-name="Group 38" transform="translate(72.753 30.568)">
      <g id="Group_37" data-name="Group 37">
        <path id="Path_8" data-name="Path 8" d="M113.789,264.533h-9.861a.986.986,0,0,0-.986.986v17.749a.986.986,0,0,0,.986.986h9.861a.986.986,0,0,0,.986-.986V265.519A.986.986,0,0,0,113.789,264.533Zm-.986,17.749h-7.888V266.505H112.8Z" transform="translate(-102.942 -264.533)" fill="#fff"/>
      </g>
    </g>
  </g>
</svg>
