<svg xmlns="http://www.w3.org/2000/svg" width="13.05" height="14.5" viewBox="0 0 13.05 14.5">
  <path id="Icon_material-date-range" data-name="Icon material-date-range" d="M8.85,9.525H7.4v1.45H8.85Zm2.9,0H10.3v1.45h1.45Zm2.9,0H13.2v1.45h1.45ZM16.1,4.45h-.725V3h-1.45V4.45h-5.8V3H6.675V4.45H5.95A1.443,1.443,0,0,0,4.507,5.9L4.5,16.05A1.45,1.45,0,0,0,5.95,17.5H16.1a1.454,1.454,0,0,0,1.45-1.45V5.9A1.454,1.454,0,0,0,16.1,4.45Zm0,11.6H5.95V8.075H16.1Z" transform="translate(-4.5 -3)" fill="#771732"/>
</svg>
